<?xml version="1.0" encoding="UTF-8" standalone="no"?>
<!-- Created with Inkscape (http://www.inkscape.org/) -->

<svg
   xmlns:dc="http://purl.org/dc/elements/1.1/"
   xmlns:cc="http://creativecommons.org/ns#"
   xmlns:rdf="http://www.w3.org/1999/02/22-rdf-syntax-ns#"
   xmlns:svg="http://www.w3.org/2000/svg"
   xmlns="http://www.w3.org/2000/svg"
   xmlns:sodipodi="http://sodipodi.sourceforge.net/DTD/sodipodi-0.dtd"
   xmlns:inkscape="http://www.inkscape.org/namespaces/inkscape"
   version="1.1"
   id="svg815"
   xml:space="preserve"
   width="1000"
   height="666.66669"
   viewBox="0 0 1000 666.66669"
   sodipodi:docname="party.svg"
   inkscape:version="0.92.5 (2060ec1f9f, 2020-04-08)"><metadata
     id="metadata821"><rdf:RDF><cc:Work
         rdf:about=""><dc:format>image/svg+xml</dc:format><dc:type
           rdf:resource="http://purl.org/dc/dcmitype/StillImage" /><dc:title /></cc:Work></rdf:RDF></metadata><defs
     id="defs819"><clipPath
       clipPathUnits="userSpaceOnUse"
       id="clipPath833"><path
         d="M 0,500 H 750 V 0 H 0 Z"
         id="path831"
         inkscape:connector-curvature="0" /></clipPath><clipPath
       clipPathUnits="userSpaceOnUse"
       id="clipPath841"><path
         d="m 611.425,347.391 h 26.562 V 197.827 h -26.562 z"
         id="path839"
         inkscape:connector-curvature="0" /></clipPath><clipPath
       clipPathUnits="userSpaceOnUse"
       id="clipPath861"><path
         d="m 454.572,382.721 h 31.854 V 203.357 h -31.854 z"
         id="path859"
         inkscape:connector-curvature="0" /></clipPath><clipPath
       clipPathUnits="userSpaceOnUse"
       id="clipPath881"><path
         d="m 318.039,313.052 h 31.855 V 133.687 h -31.855 z"
         id="path879"
         inkscape:connector-curvature="0" /></clipPath><clipPath
       clipPathUnits="userSpaceOnUse"
       id="clipPath901"><path
         d="M 106.406,326.193 H 154.77 V 150.361 h -48.364 z"
         id="path899"
         inkscape:connector-curvature="0" /></clipPath><clipPath
       clipPathUnits="userSpaceOnUse"
       id="clipPath1065"><path
         d="m 434.615,86.673 c -0.253,-0.472 -3.646,-10.19 -4.117,-9.937 v 0 c -0.301,0.162 -2.59,-1.08 -4.209,-2.001 v 0 c -0.931,-0.53 -1.311,-1.674 -0.879,-2.653 v 0 c 1.851,-4.2 6.684,-14.786 9.032,-16.288 v 0 c 2.937,-1.88 10.805,-3.065 10.73,-1.507 v 0 c -0.074,1.558 -5.842,4.956 -5.842,4.956 v 0 l -4.118,14.963 6.038,10.12 -6.273,2.456 z"
         id="path1063"
         inkscape:connector-curvature="0" /></clipPath><clipPath
       clipPathUnits="userSpaceOnUse"
       id="clipPath1081"><path
         d="M 0,500 H 750 V 0 H 0 Z"
         id="path1079"
         inkscape:connector-curvature="0" /></clipPath><clipPath
       clipPathUnits="userSpaceOnUse"
       id="clipPath1093"><path
         d="m 498.038,95.53 c 0,0 7.856,-7.533 8.135,-7.783 v 0 c 0.279,-0.25 -6.282,-16.019 -5.944,-17.328 v 0 c 0.338,-1.309 16.844,17.137 16.256,18.165 v 0 c -0.589,1.031 -5.222,3.164 -5.222,3.164 v 0 c 0,0 -7.943,9.12 -7.972,9.65 v 0 z"
         id="path1091"
         inkscape:connector-curvature="0" /></clipPath><clipPath
       clipPathUnits="userSpaceOnUse"
       id="clipPath1109"><path
         d="M 0,500 H 750 V 0 H 0 Z"
         id="path1107"
         inkscape:connector-curvature="0" /></clipPath><clipPath
       clipPathUnits="userSpaceOnUse"
       id="clipPath1133"><path
         d="m 452.601,231.825 c -7.569,0.883 -6.352,-75.564 -6.352,-75.564 v 0 L 429.107,84.39 443.241,80.782 c 0,0 8.322,24.487 17.661,51.335 v 0 c 9.998,-11.702 36.167,-40.209 36.167,-40.209 v 0 l 9.923,9.923 -39.117,50.216 c 6.504,18.462 12.633,35.445 15.962,43.607 v 0 c 9.322,22.854 -3.007,36.988 -3.007,36.988 v 0 c 0,0 -22.093,-1.533 -28.229,-0.817"
         id="path1131"
         inkscape:connector-curvature="0" /></clipPath><clipPath
       clipPathUnits="userSpaceOnUse"
       id="clipPath1141"><path
         d="m 460.902,152.161 h 54.227 V 88.25 h -54.227 z"
         id="path1139"
         inkscape:connector-curvature="0" /></clipPath><clipPath
       clipPathUnits="userSpaceOnUse"
       id="clipPath1157"><path
         d="m 436.734,212.654 h 24.395 v -70.063 h -24.395 z"
         id="path1155"
         inkscape:connector-curvature="0" /></clipPath><clipPath
       clipPathUnits="userSpaceOnUse"
       id="clipPath1173"><path
         d="M 0,500 H 750 V 0 H 0 Z"
         id="path1171"
         inkscape:connector-curvature="0" /></clipPath><clipPath
       clipPathUnits="userSpaceOnUse"
       id="clipPath1185"><path
         d="m 435.32,354.251 c -6.128,-2.937 -7.457,-12.907 -2.97,-22.269 v 0 c 4.487,-9.361 13.093,-14.569 19.22,-11.632 v 0 c 6.128,2.938 7.458,12.908 2.97,22.269 v 0 c -3.639,7.592 -9.986,12.452 -15.523,12.451 v 0 c -1.291,0 -2.538,-0.264 -3.697,-0.819"
         id="path1183"
         inkscape:connector-curvature="0" /></clipPath><clipPath
       clipPathUnits="userSpaceOnUse"
       id="clipPath1197"><path
         d="M 0,500 H 750 V 0 H 0 Z"
         id="path1195"
         inkscape:connector-curvature="0" /></clipPath><clipPath
       clipPathUnits="userSpaceOnUse"
       id="clipPath1293"><path
         d="m 348.147,79.424 c 0,0 10.714,-6.632 11.092,-6.848 v 0 c 0.377,-0.215 -3.244,-19.659 -2.545,-21.06 v 0 c 0.7,-1.4 14.936,23.477 14.021,24.501 v 0 c -0.916,1.024 -6.679,2.32 -6.679,2.32 v 0 c 0,0 -11.198,8.41 -11.359,9.003 v 0 z"
         id="path1291"
         inkscape:connector-curvature="0" /></clipPath><clipPath
       clipPathUnits="userSpaceOnUse"
       id="clipPath1309"><path
         d="M 0,500 H 750 V 0 H 0 Z"
         id="path1307"
         inkscape:connector-curvature="0" /></clipPath><clipPath
       clipPathUnits="userSpaceOnUse"
       id="clipPath1321"><path
         d="m 272.282,63.31 c 0,0 7.89,-9.827 8.172,-10.156 v 0 c 0.285,-0.329 -9.615,-17.45 -9.424,-19.005 v 0 c 0.193,-1.554 21.912,17.149 21.391,18.42 v 0 c -0.521,1.271 -5.522,4.415 -5.522,4.415 v 0 c 0,0 -7.751,11.664 -7.706,12.276 v 0 z"
         id="path1319"
         inkscape:connector-curvature="0" /></clipPath><clipPath
       clipPathUnits="userSpaceOnUse"
       id="clipPath1337"><path
         d="M 0,500 H 750 V 0 H 0 Z"
         id="path1335"
         inkscape:connector-curvature="0" /></clipPath><clipPath
       clipPathUnits="userSpaceOnUse"
       id="clipPath1461"><path
         d="M 602.043,187.619 C 593.099,170.851 589.586,131.56 589.586,131.56 v 0 l 27.79,-59.574 c -0.479,-6.867 -6.867,-12.138 -7.827,-13.256 v 0 c -0.957,-1.118 6.55,-1.756 7.028,2.556 v 0 c 0.485,4.367 4.312,3.992 5.111,5.749 v 0 c 0.799,1.757 -1.916,5.43 -1.916,5.43 v 0 c -2.556,53.665 -19.166,59.095 -19.166,59.095 v 0 c 0,0 18.207,21.401 29.707,44.72 v 0 c 11.499,23.319 -15.014,40.569 -15.014,40.569 v 0 c 0,0 -4.312,-12.459 -13.256,-29.23"
         id="path1459"
         inkscape:connector-curvature="0" /></clipPath><clipPath
       clipPathUnits="userSpaceOnUse"
       id="clipPath1473"><path
         d="M 0,500 H 750 V 0 H 0 Z"
         id="path1471"
         inkscape:connector-curvature="0" /></clipPath><clipPath
       clipPathUnits="userSpaceOnUse"
       id="clipPath1485"><path
         d="m 578.299,205.684 c -18.025,-6.027 -47.591,-32.141 -47.591,-32.141 v 0 l -20.782,-62.366 c -5.07,-4.657 -13.333,-4.091 -14.796,-4.243 v 0 c -1.466,-0.154 3.546,-5.779 6.858,-2.978 v 0 c 2.056,1.739 3.799,1.322 5.252,0.907 v 0 c 0.918,-0.264 1.721,-0.527 2.414,-0.245 v 0 c 1.787,0.726 2.342,5.26 2.342,5.26 v 0 c 35.042,40.724 26.714,56.087 26.714,56.087 v 0 c 0,0 27.936,3.022 52.319,12.048 v 0 c 24.384,9.025 16.992,39.78 16.992,39.78 v 0 c 0,0 -11.697,-6.081 -29.722,-12.109"
         id="path1483"
         inkscape:connector-curvature="0" /></clipPath><clipPath
       clipPathUnits="userSpaceOnUse"
       id="clipPath1497"><path
         d="M 0,500 H 750 V 0 H 0 Z"
         id="path1495"
         inkscape:connector-curvature="0" /></clipPath><clipPath
       clipPathUnits="userSpaceOnUse"
       id="clipPath1521"><path
         d="m 599.008,265.002 c -4.312,-4.552 -3.114,-16.051 5.271,-13.416 v 0 l 7.187,-28.509 12.458,-3.354 c 0,0 -2.555,19.964 19.645,42.644 v 0 l -0.239,10.541 -35.217,11.26 c 0,0 -5.174,-15.018 -9.105,-19.166"
         id="path1519"
         inkscape:connector-curvature="0" /></clipPath><clipPath
       clipPathUnits="userSpaceOnUse"
       id="clipPath1553"><path
         d="M 0,500 H 750 V 0 H 0 Z"
         id="path1551"
         inkscape:connector-curvature="0" /></clipPath></defs><sodipodi:namedview
     pagecolor="#ffffff"
     bordercolor="#666666"
     borderopacity="1"
     objecttolerance="10"
     gridtolerance="10"
     guidetolerance="10"
     inkscape:pageopacity="0"
     inkscape:pageshadow="2"
     inkscape:window-width="2560"
     inkscape:window-height="1377"
     id="namedview817"
     showgrid="false"
     inkscape:zoom="0.64169938"
     inkscape:cx="427.89691"
     inkscape:cy="283.23287"
     inkscape:window-x="1272"
     inkscape:window-y="-8"
     inkscape:window-maximized="1"
     inkscape:current-layer="g823" /><g
     id="g823"
     inkscape:groupmode="layer"
     inkscape:label="3305763"
     transform="matrix(1.3333333,0,0,-1.3333333,0,666.66667)"><path
       d="M 0,0 H 750 V 500 H 0 Z"
       style="fill:#ffffff;fill-opacity:0;fill-rule:nonzero;stroke:none"
       id="path825"
       inkscape:connector-curvature="0" /><g
       id="g827"><g
         id="g829"
         clip-path="url(#clipPath833)"><g
           id="g835"><g
             id="g837" /><g
             id="g849"><g
               clip-path="url(#clipPath841)"
               id="g847"
               style="opacity:0.55000299"><g
                 transform="translate(632.7535,197.8268)"
                 id="g845"><path
                   d="m 0,0 -0.531,0.598 c 0.152,0.135 14.887,13.897 -7.489,46.95 -12.631,18.659 -14.064,36.374 -13.042,47.951 1.264,14.321 6.614,25.48 11.199,31.147 9,11.124 4.789,22.519 4.746,22.632 l 0.746,0.286 c 0.046,-0.118 4.416,-11.943 -4.87,-23.421 -7.207,-8.907 -22.328,-42.382 1.884,-78.147 C -0.799,38.309 6.669,24.08 4.995,11.316 3.985,3.611 0.163,0.144 0,0"
                   style="fill:#3a3a3a;fill-opacity:1;fill-rule:nonzero;stroke:none"
                   id="path843"
                   inkscape:connector-curvature="0" /></g></g></g></g><g
           id="g851"
           transform="translate(628.0094,347.2482)"><path
             d="M 0,0 C 0,0 -5.232,-3.77 -1.967,-4.229 1.299,-4.688 5.611,-7.451 5.36,-5.064 L 4.772,0.503 c 0,0 20.217,14.199 20.88,38.396 C 26.315,63.098 1.653,75.776 -11.109,51.909 -23.871,28.043 0,0 0,0"
             style="fill:#f9dc5c;fill-opacity:1;fill-rule:nonzero;stroke:none"
             id="path853"
             inkscape:connector-curvature="0" /></g><g
           id="g855"><g
             id="g857" /><g
             id="g869"><g
               clip-path="url(#clipPath861)"
               id="g867"
               style="opacity:0.55000299"><g
                 transform="translate(480.15,203.3571)"
                 id="g865"><path
                   d="m 0,0 -0.637,0.717 c 0.182,0.162 17.854,16.666 -8.981,56.304 -15.148,22.377 -16.866,43.622 -15.642,57.505 1.517,17.175 7.933,30.557 13.432,37.353 10.793,13.34 5.743,27.006 5.69,27.142 l 0.896,0.343 c 0.055,-0.141 5.296,-14.323 -5.841,-28.088 -8.643,-10.682 -26.776,-50.826 2.26,-93.717 C -0.958,45.94 7.998,28.877 5.99,13.571 4.778,4.33 0.195,0.172 0,0"
                   style="fill:#3a3a3a;fill-opacity:1;fill-rule:nonzero;stroke:none"
                   id="path863"
                   inkscape:connector-curvature="0" /></g></g></g></g><g
           id="g871"
           transform="translate(474.4606,382.5495)"><path
             d="m 0,0 c 0,0 -6.274,-4.52 -2.358,-5.071 3.916,-0.552 9.087,-3.864 8.786,-1.002 -0.302,2.862 -0.705,6.677 -0.705,6.677 0,0 24.245,17.027 25.041,46.047 C 31.559,75.67 1.982,90.875 -13.322,62.252 -28.628,33.631 0,0 0,0"
             style="fill:#4ed069;fill-opacity:1;fill-rule:nonzero;stroke:none"
             id="path873"
             inkscape:connector-curvature="0" /></g><g
           id="g875"><g
             id="g877" /><g
             id="g889"><g
               clip-path="url(#clipPath881)"
               id="g887"
               style="opacity:0.55000299"><g
                 transform="translate(324.3156,133.6872)"
                 id="g885"><path
                   d="m 0,0 0.637,0.717 c -0.182,0.163 -17.854,16.667 8.981,56.304 15.148,22.377 16.867,43.623 15.641,57.505 -1.516,17.176 -7.932,30.557 -13.43,37.353 -10.793,13.341 -5.744,27.006 -5.691,27.142 l -0.896,0.344 C 5.187,179.223 -0.054,165.042 11.083,151.276 19.725,140.595 37.859,100.45 8.823,57.56 0.958,45.94 -7.998,28.878 -5.991,13.571 -4.779,4.331 -0.195,0.172 0,0"
                   style="fill:#3a3a3a;fill-opacity:1;fill-rule:nonzero;stroke:none"
                   id="path883"
                   inkscape:connector-curvature="0" /></g></g></g></g><g
           id="g891"
           transform="translate(330.0055,312.8806)"><path
             d="m 0,0 c 0,0 6.274,-4.521 2.358,-5.072 -3.916,-0.551 -9.088,-3.863 -8.786,-1.001 0.302,2.861 0.704,6.677 0.704,6.677 0,0 -24.244,17.027 -25.04,46.046 -0.795,29.02 28.781,44.225 44.086,15.602 C 28.627,33.63 0,0 0,0"
             style="fill:#e84855;fill-opacity:1;fill-rule:nonzero;stroke:none"
             id="path893"
             inkscape:connector-curvature="0" /></g><g
           id="g895"><g
             id="g897" /><g
             id="g909"><g
               clip-path="url(#clipPath901)"
               id="g907"
               style="opacity:0.55000299"><g
                 transform="translate(110.0172,150.361)"
                 id="g905"><path
                   d="M 0,0 0.75,0.598 C 0.599,0.789 -13.994,20.069 19.219,54.54 37.967,74 43.291,94.639 44.455,108.527 c 1.441,17.182 -2.595,31.463 -6.851,39.098 -8.355,14.989 -1.045,27.59 -0.97,27.716 l -0.824,0.491 c -0.078,-0.13 -7.665,-13.208 0.956,-28.673 C 43.457,135.157 54.465,92.505 18.528,55.206 8.793,45.102 -2.946,29.819 -3.583,14.396 -3.968,5.084 -0.163,0.203 0,0"
                   style="fill:#3a3a3a;fill-opacity:1;fill-rule:nonzero;stroke:none"
                   id="path903"
                   inkscape:connector-curvature="0" /></g></g></g></g><g
           id="g911"
           transform="translate(146.2394,325.9474)"><path
             d="m 0,0 c 0,0 5.41,-5.526 1.457,-5.4 -3.953,0.126 -9.615,-2.254 -8.829,0.514 0.787,2.768 1.836,6.459 1.836,6.459 0,0 -20.98,20.919 -16.805,49.648 4.174,28.728 35.913,38.656 46.103,7.84 C 33.952,28.245 0,0 0,0"
             style="fill:#1a73e8;fill-opacity:1;fill-rule:nonzero;stroke:none"
             id="path913"
             inkscape:connector-curvature="0" /></g><g
           id="g915"
           transform="translate(239.0006,384.6486)"><path
             d="m 0,0 c 4.299,-1.131 8.598,-2.262 12.897,-3.393 1.869,-0.491 2.666,2.402 0.797,2.893 L 0.798,2.893 C -1.071,3.385 -1.868,0.492 0,0"
             style="fill:#2d6c8c;fill-opacity:1;fill-rule:nonzero;stroke:none"
             id="path917"
             inkscape:connector-curvature="0" /></g><g
           id="g919"
           transform="translate(386.7701,363.4675)"><path
             d="m 0,0 c 4.784,1.773 8.732,4.714 11.837,8.756 1.176,1.531 -1.429,3.026 -2.59,1.515 C 6.661,6.904 3.177,4.366 -0.798,2.893 -2.593,2.228 -1.816,-0.673 0,0"
             style="fill:#2d6c8c;fill-opacity:1;fill-rule:nonzero;stroke:none"
             id="path921"
             inkscape:connector-curvature="0" /></g><g
           id="g923"
           transform="translate(392.2496,182.8298)"><path
             d="m 0,0 c 2.886,-2.542 6.286,-3.991 10.113,-4.349 1.921,-0.179 1.909,2.822 0,3 -2.99,0.28 -5.741,1.488 -7.992,3.47 C 0.678,3.394 -1.452,1.279 0,0"
             style="fill:#2d6c8c;fill-opacity:1;fill-rule:nonzero;stroke:none"
             id="path925"
             inkscape:connector-curvature="0" /></g><g
           id="g927"
           transform="translate(215.6217,164.6882)"><path
             d="M 0,0 C 2.278,-1.112 4.557,-2.225 6.835,-3.337 8.564,-4.181 10.086,-1.594 8.35,-0.746 6.071,0.366 3.792,1.479 1.514,2.59 -0.214,3.434 -1.737,0.848 0,0"
             style="fill:#2d6c8c;fill-opacity:1;fill-rule:nonzero;stroke:none"
             id="path929"
             inkscape:connector-curvature="0" /></g><g
           id="g931"
           transform="translate(565.5875,226.239)"><path
             d="M 0,0 C 1.001,1.332 2.001,2.665 3.002,3.998 3.489,4.646 3.106,5.675 2.464,6.051 1.697,6.499 0.899,6.162 0.412,5.513 -0.589,4.18 -1.59,2.847 -2.59,1.514 -3.077,0.865 -2.694,-0.163 -2.052,-0.538 -1.285,-0.987 -0.487,-0.65 0,0"
             style="fill:#2d6c8c;fill-opacity:1;fill-rule:nonzero;stroke:none"
             id="path933"
             inkscape:connector-curvature="0" /></g><g
           id="g935"
           transform="translate(581.4147,382.9797)"><path
             d="M 0,0 C 1.362,-1.642 2.726,-3.284 4.089,-4.926 5.323,-6.413 7.435,-4.281 6.21,-2.805 4.847,-1.163 3.484,0.479 2.121,2.122 0.887,3.608 -1.226,1.476 0,0"
             style="fill:#2d6c8c;fill-opacity:1;fill-rule:nonzero;stroke:none"
             id="path937"
             inkscape:connector-curvature="0" /></g><g
           id="g939"
           transform="translate(368.6031,289.6496)"><path
             d="m 0,0 c 1.333,-1 2.667,-2 4,-3 0.648,-0.486 1.676,-0.104 2.052,0.539 0.448,0.766 0.112,1.564 -0.538,2.052 -1.333,1 -2.667,2 -4,3 C 0.865,3.077 -0.163,2.695 -0.539,2.052 -0.987,1.286 -0.65,0.488 0,0"
             style="fill:#2d6c8c;fill-opacity:1;fill-rule:nonzero;stroke:none"
             id="path941"
             inkscape:connector-curvature="0" /></g><g
           id="g943"
           transform="translate(503.6031,237.6501)"><path
             d="m 0,0 c 1,-0.667 2,-1.334 3,-2 0.674,-0.45 1.66,-0.132 2.052,0.538 0.43,0.735 0.137,1.602 -0.538,2.052 -1,0.667 -2,1.334 -3,2 C 0.84,3.04 -0.146,2.722 -0.538,2.052 -0.969,1.316 -0.676,0.45 0,0"
             style="fill:#2d6c8c;fill-opacity:1;fill-rule:nonzero;stroke:none"
             id="path945"
             inkscape:connector-curvature="0" /></g><g
           id="g947"
           transform="translate(71.4318,174.8718)"><path
             d="M 0,0 C 1.937,1.736 3.875,3.473 5.813,5.209 7.254,6.5 5.127,8.615 3.692,7.33 1.754,5.594 -0.184,3.857 -2.122,2.122 -3.563,0.831 -1.435,-1.285 0,0"
             style="fill:#2d6c8c;fill-opacity:1;fill-rule:nonzero;stroke:none"
             id="path949"
             inkscape:connector-curvature="0" /></g><g
           id="g951"
           transform="translate(83.6032,317.6496)"><path
             d="m 0,0 c 1.667,-1 3.333,-2 5,-3 1.659,-0.996 3.169,1.597 1.514,2.591 -1.667,1 -3.333,2 -5,3 C -0.146,3.586 -1.656,0.994 0,0"
             style="fill:#2d6c8c;fill-opacity:1;fill-rule:nonzero;stroke:none"
             id="path953"
             inkscape:connector-curvature="0" /></g><g
           id="g955"
           transform="translate(200.6227,347.6896)"><path
             d="m 0,0 5.996,-3.009 c 1.721,-0.864 3.241,1.723 1.514,2.591 L 1.514,2.59 C -0.207,3.454 -1.728,0.867 0,0"
             style="fill:#2d6c8c;fill-opacity:1;fill-rule:nonzero;stroke:none"
             id="path957"
             inkscape:connector-curvature="0" /></g><g
           id="g959"
           transform="translate(192.36,227.445)"><path
             d="M 0,0 C 1.93,0 1.934,3 0,3 -1.93,3 -1.934,0 0,0"
             style="fill:#fc5673;fill-opacity:1;fill-rule:nonzero;stroke:none"
             id="path961"
             inkscape:connector-curvature="0" /></g><g
           id="g963"
           transform="translate(371.359,144.4245)"><path
             d="M 0,0 C 2.192,-0.069 4.345,0.299 6.378,1.126 8.143,1.844 7.371,4.747 5.58,4.019 3.772,3.283 1.951,2.938 0,3 -1.931,3.062 -1.929,0.062 0,0"
             style="fill:#fc5673;fill-opacity:1;fill-rule:nonzero;stroke:none"
             id="path965"
             inkscape:connector-curvature="0" /></g><g
           id="g967"
           transform="translate(108.359,116.944)"><path
             d="M 0,0 C 1.844,-1.771 4.077,-3.012 6.57,-3.596 8.448,-4.035 9.25,-1.143 7.367,-0.702 5.363,-0.233 3.608,0.693 2.122,2.122 0.729,3.46 -1.395,1.342 0,0"
             style="fill:#e84855;fill-opacity:1;fill-rule:nonzero;stroke:none"
             id="path969"
             inkscape:connector-curvature="0" /></g><g
           id="g971"
           transform="translate(241.0646,353.1882)"><path
             d="m 0,0 c 0.333,-0.667 0.667,-1.333 1,-2 0.362,-0.725 1.386,-0.928 2.052,-0.539 0.738,0.432 0.902,1.326 0.539,2.053 -0.334,0.667 -0.667,1.333 -1,2 C 2.229,2.238 1.205,2.442 0.539,2.052 -0.199,1.621 -0.363,0.727 0,0"
             style="fill:#fc5673;fill-opacity:1;fill-rule:nonzero;stroke:none"
             id="path973"
             inkscape:connector-curvature="0" /></g><g
           id="g975"
           transform="translate(524.1168,201.6501)"><path
             d="m 0,0 c 2.334,1 4.667,2 7,3 1.77,0.758 0.243,3.343 -1.514,2.59 -2.334,-1 -4.667,-2 -7,-3 C -3.283,1.832 -1.757,-0.753 0,0"
             style="fill:#fc5673;fill-opacity:1;fill-rule:nonzero;stroke:none"
             id="path977"
             inkscape:connector-curvature="0" /></g><g
           id="g979"
           transform="translate(418.1442,367.7219)"><path
             d="m 0,0 c 1.022,-0.977 2.044,-1.954 3.066,-2.93 1.397,-1.334 3.521,0.784 2.122,2.121 L 2.121,2.121 C 0.725,3.455 -1.399,1.337 0,0"
             style="fill:#fc5673;fill-opacity:1;fill-rule:nonzero;stroke:none"
             id="path981"
             inkscape:connector-curvature="0" /></g><g
           id="g983"
           transform="translate(579.86,348.945)"><path
             d="m 0,0 v -6 c 0,-1.93 3,-1.934 3,0 V 0 C 3,1.93 0,1.934 0,0"
             style="fill:#fc5673;fill-opacity:1;fill-rule:nonzero;stroke:none"
             id="path985"
             inkscape:connector-curvature="0" /></g><g
           id="g987"
           transform="translate(543.9137,244.5466)"><path
             d="m 0,0 c 0.333,-1 0.667,-2 1,-3 0.256,-0.769 1.034,-1.271 1.845,-1.048 0.751,0.206 1.305,1.073 1.048,1.845 -0.333,1 -0.667,2 -1,3 C 2.637,1.565 1.858,2.067 1.048,1.845 0.297,1.639 -0.258,0.771 0,0"
             style="fill:#fc5673;fill-opacity:1;fill-rule:nonzero;stroke:none"
             id="path989"
             inkscape:connector-curvature="0" /></g><g
           id="g991"
           transform="translate(661.6276,127.6882)"><path
             d="M 0,0 C 1.004,-0.662 2.007,-1.323 3.011,-1.984 3.688,-2.431 4.67,-2.119 5.062,-1.446 5.491,-0.714 5.203,0.158 4.524,0.605 3.521,1.268 2.518,1.929 1.515,2.59 0.838,3.036 -0.145,2.725 -0.538,2.052 -0.966,1.319 -0.678,0.446 0,0"
             style="fill:#fc5673;fill-opacity:1;fill-rule:nonzero;stroke:none"
             id="path993"
             inkscape:connector-curvature="0" /></g><g
           id="g995"
           transform="translate(682.1168,226.6501)"><path
             d="M 0,0 C 0.667,0.333 1.334,0.666 2,1 2.725,1.362 2.929,2.386 2.538,3.052 2.107,3.79 1.213,3.954 0.486,3.59 -0.181,3.257 -0.848,2.924 -1.514,2.59 -2.238,2.228 -2.442,1.204 -2.052,0.538 -1.621,-0.2 -0.727,-0.364 0,0"
             style="fill:#fc5673;fill-opacity:1;fill-rule:nonzero;stroke:none"
             id="path997"
             inkscape:connector-curvature="0" /></g><g
           id="g999"
           transform="translate(248.5075,304.4821)"><path
             d="m 0,0 c 3.611,-2.086 6.97,-4.499 10.083,-7.275 1.437,-1.281 3.566,0.833 2.122,2.121 C 8.905,-2.211 5.343,0.379 1.514,2.59 -0.161,3.558 -1.673,0.966 0,0"
             style="fill:#fdc14c;fill-opacity:1;fill-rule:nonzero;stroke:none"
             id="path1001"
             inkscape:connector-curvature="0" /></g><g
           id="g1003"
           transform="translate(308.6534,418.7175)"><path
             d="M 0,0 C 1.333,-1.001 2.666,-2.001 3.999,-3.002 4.647,-3.489 5.675,-3.106 6.051,-2.464 6.5,-1.697 6.163,-0.899 5.513,-0.412 4.18,0.589 2.847,1.589 1.514,2.59 0.866,3.077 -0.162,2.694 -0.538,2.052 -0.987,1.285 -0.65,0.488 0,0"
             style="fill:#fdc14c;fill-opacity:1;fill-rule:nonzero;stroke:none"
             id="path1005"
             inkscape:connector-curvature="0" /></g><g
           id="g1007"
           transform="translate(180.6271,397.6955)"><path
             d="m 0,0 c 4.003,-2.022 8.25,-3.14 12.73,-3.338 1.931,-0.086 1.926,2.915 0,3 C 8.782,-0.164 5.042,0.808 1.514,2.59 -0.205,3.459 -1.726,0.872 0,0"
             style="fill:#fdc14c;fill-opacity:1;fill-rule:nonzero;stroke:none"
             id="path1009"
             inkscape:connector-curvature="0" /></g><g
           id="g1011"
           transform="translate(94.36,371.445)"><path
             d="M 0,0 H 3 C 4.93,0 4.934,3 3,3 H 0 C -1.93,3 -1.934,0 0,0"
             style="fill:#fdc14c;fill-opacity:1;fill-rule:nonzero;stroke:none"
             id="path1013"
             inkscape:connector-curvature="0" /></g><g
           id="g1015"
           transform="translate(370.9137,208.5466)"><path
             d="m 0,0 c 0.333,-1.334 0.667,-2.667 1,-4 0.468,-1.872 3.362,-1.079 2.893,0.797 -0.333,1.334 -0.667,2.667 -1,4 C 2.425,2.669 -0.469,1.876 0,0"
             style="fill:#fdc14c;fill-opacity:1;fill-rule:nonzero;stroke:none"
             id="path1017"
             inkscape:connector-curvature="0" /></g><g
           id="g1019"
           transform="translate(380.2994,133.8845)"><path
             d="m 0,0 c 2,-1.667 4,-3.333 6,-5 1.473,-1.228 3.606,0.884 2.121,2.121 -2,1.667 -4,3.333 -6,5 C 0.648,3.349 -1.485,1.237 0,0"
             style="fill:#fdc14c;fill-opacity:1;fill-rule:nonzero;stroke:none"
             id="path1021"
             inkscape:connector-curvature="0" /></g><g
           id="g1023"
           transform="translate(522.2994,357.8845)"><path
             d="m 0,0 c 0.333,-0.333 0.667,-0.667 1,-1 0.572,-0.573 1.549,-0.573 2.121,0 0.575,0.575 0.575,1.546 0,2.121 -0.333,0.334 -0.667,0.667 -1,1 C 1.549,2.694 0.572,2.694 0,2.121 -0.575,1.546 -0.575,0.575 0,0"
             style="fill:#fdc14c;fill-opacity:1;fill-rule:nonzero;stroke:none"
             id="path1025"
             inkscape:connector-curvature="0" /></g><g
           id="g1027"
           transform="translate(423.2994,398.8845)"><path
             d="m 0,0 c 0.667,-0.667 1.333,-1.333 2,-2 0.572,-0.573 1.549,-0.573 2.121,0 0.575,0.575 0.575,1.546 0,2.121 -0.667,0.667 -1.333,1.334 -2,2 C 1.549,2.694 0.572,2.694 0,2.121 -0.575,1.546 -0.575,0.575 0,0"
             style="fill:#fdc14c;fill-opacity:1;fill-rule:nonzero;stroke:none"
             id="path1029"
             inkscape:connector-curvature="0" /></g><g
           id="g1031"
           transform="translate(503.36,419.445)"><path
             d="M 0,0 C 1.931,0 1.934,3 0,3 -1.931,3 -1.934,0 0,0"
             style="fill:#fdc14c;fill-opacity:1;fill-rule:nonzero;stroke:none"
             id="path1033"
             inkscape:connector-curvature="0" /></g><g
           id="g1035"
           transform="translate(567.9137,422.3439)"><path
             d="m 0,0 c -0.333,-1.667 -0.667,-3.333 -1,-5 -0.377,-1.885 2.514,-2.692 2.893,-0.798 0.333,1.667 0.667,3.334 1,5 C 3.27,1.087 0.379,1.895 0,0"
             style="fill:#fdc14c;fill-opacity:1;fill-rule:nonzero;stroke:none"
             id="path1037"
             inkscape:connector-curvature="0" /></g><g
           id="g1039"
           transform="translate(550.6276,326.6877)"><path
             d="M 0,0 C 1.004,-0.662 2.007,-1.323 3.011,-1.984 3.688,-2.43 4.67,-2.119 5.062,-1.446 5.491,-0.714 5.203,0.159 4.524,0.606 3.521,1.268 2.518,1.929 1.515,2.59 0.838,3.037 -0.145,2.725 -0.538,2.052 -0.966,1.32 -0.678,0.447 0,0"
             style="fill:#fdc14c;fill-opacity:1;fill-rule:nonzero;stroke:none"
             id="path1041"
             inkscape:connector-curvature="0" /></g><g
           id="g1043"
           transform="translate(489.6031,339.6496)"><path
             d="m 0,0 4,-2 c 1.722,-0.861 3.243,1.726 1.514,2.591 l -4,2 C -0.208,3.452 -1.729,0.865 0,0"
             style="fill:#fdc14c;fill-opacity:1;fill-rule:nonzero;stroke:none"
             id="path1045"
             inkscape:connector-curvature="0" /></g><g
           id="g1047"
           transform="translate(671.1119,166.6677)"><path
             d="m 0,0 c -2.686,-3.653 -5.371,-7.306 -8.057,-10.958 -1.145,-1.558 1.457,-3.056 2.59,-1.515 2.686,3.653 5.372,7.306 8.058,10.958 C 3.735,0.042 1.133,1.54 0,0"
             style="fill:#fdc14c;fill-opacity:1;fill-rule:nonzero;stroke:none"
             id="path1049"
             inkscape:connector-curvature="0" /></g><g
           id="g1051"
           transform="translate(579.2994,131.8845)"><path
             d="m 0,0 3,-3 c 1.367,-1.367 3.488,0.754 2.121,2.121 l -3,3 C 0.754,3.488 -1.367,1.367 0,0"
             style="fill:#fdc14c;fill-opacity:1;fill-rule:nonzero;stroke:none"
             id="path1053"
             inkscape:connector-curvature="0" /></g><g
           id="g1055"
           transform="translate(434.6149,86.6725)"><path
             d="m 0,0 c -0.253,-0.472 -3.646,-10.189 -4.117,-9.937 -0.301,0.163 -2.59,-1.08 -4.209,-2.001 -0.931,-0.53 -1.311,-1.673 -0.879,-2.653 1.851,-4.2 6.684,-14.786 9.032,-16.288 2.938,-1.88 10.805,-3.064 10.73,-1.507 -0.075,1.559 -5.842,4.957 -5.842,4.957 L 0.598,-12.467 6.636,-2.346 0.362,0.109"
             style="fill:#feceac;fill-opacity:1;fill-rule:nonzero;stroke:none"
             id="path1057"
             inkscape:connector-curvature="0" /></g></g></g><g
       id="g1059"><g
         id="g1061"
         clip-path="url(#clipPath1065)"><g
           id="g1067"
           transform="translate(430.5778,83.6765)"><path
             d="M 0,0 C 0,0 7.038,-4.991 9.977,-6.871 12.915,-8.752 20.27,-31.827 20.27,-31.827 l -19.172,-0.645 -11.656,15.061 z"
             style="fill:#f4eae9;fill-opacity:1;fill-rule:nonzero;stroke:none"
             id="path1069"
             inkscape:connector-curvature="0" /></g><g
           id="g1071"
           transform="translate(426.7711,84.5046)"><path
             d="m 0,0 c -0.178,-2.029 4.324,-7.785 11.978,-12.196 7.653,-4.41 11.667,-22.961 11.667,-22.961 l -22.363,0.765 -9.045,14.267 z"
             style="fill:#563219;fill-opacity:1;fill-rule:nonzero;stroke:none"
             id="path1073"
             inkscape:connector-curvature="0" /></g></g></g><g
       id="g1075"><g
         id="g1077"
         clip-path="url(#clipPath1081)"><g
           id="g1083"
           transform="translate(503.2906,101.3981)"><path
             d="m 0,0 c 0.029,-0.529 7.973,-9.65 7.973,-9.65 0,0 4.632,-2.133 5.221,-3.163 0.588,-1.03 -15.918,-19.475 -16.256,-18.166 -0.338,1.309 6.224,17.078 5.944,17.329 -0.279,0.25 -8.134,7.782 -8.134,7.782 z"
             style="fill:#feceac;fill-opacity:1;fill-rule:nonzero;stroke:none"
             id="path1085"
             inkscape:connector-curvature="0" /></g></g></g><g
       id="g1087"><g
         id="g1089"
         clip-path="url(#clipPath1093)"><g
           id="g1095"
           transform="translate(507.4977,97.3825)"><path
             d="m 0,0 c 0,0 -5.281,-5.34 -7.841,-7.075 -2.559,-1.736 -5.18,-21.535 -5.18,-21.535 l 6.487,-6.812 20.39,25.035 -1.22,7.635 z"
             style="fill:#f4eae9;fill-opacity:1;fill-rule:nonzero;stroke:none"
             id="path1097"
             inkscape:connector-curvature="0" /></g><g
           id="g1099"
           transform="translate(511.4098,93.8806)"><path
             d="m 0,0 c 0,0 -0.544,-4.545 -8.12,-6.824 -7.576,-2.28 -5.238,-20.477 -5.238,-20.477 L 8.943,-8.003 Z"
             style="fill:#563219;fill-opacity:1;fill-rule:nonzero;stroke:none"
             id="path1101"
             inkscape:connector-curvature="0" /></g></g></g><g
       id="g1103"><g
         id="g1105"
         clip-path="url(#clipPath1109)"><g
           id="g1111"
           transform="translate(437.5543,309.9577)"><path
             d="m 0,0 c 0,0 -29.344,5.057 -53.655,-11.314 -1.589,-1.071 -2.161,-3.137 -1.403,-4.896 3.23,-7.487 13.241,-18.778 26.912,-26.752 0,0 -3.646,12.531 -13.794,24.136 -0.411,0.469 2.589,-1.578 3.211,-1.63 7.527,-0.619 30.576,0.885 42.175,11.47"
             style="fill:#feceac;fill-opacity:1;fill-rule:nonzero;stroke:none"
             id="path1113"
             inkscape:connector-curvature="0" /></g><g
           id="g1115"
           transform="translate(478.4088,309.5251)"><path
             d="m 0,0 c 0,0 28.296,11.949 55.642,2.999 2.392,-0.784 3.866,-3.203 3.459,-5.687 -1.421,-8.664 -6.343,-28.304 -22.361,-36.445 0,0 2.051,19.139 13.329,33.836 0,0 -32.809,-12.988 -49.215,-4.444"
             style="fill:#feceac;fill-opacity:1;fill-rule:nonzero;stroke:none"
             id="path1117"
             inkscape:connector-curvature="0" /></g><g
           id="g1119"
           transform="translate(435.693,309.6569)"><path
             d="m 0,0 c -0.807,-0.264 -1.879,-24.96 4.025,-39.453 5.905,-14.493 13.956,-29.523 12.883,-38.379 0,0 21.251,-5.356 28.23,0.817 0,0 8.002,62.79 -4.344,79.699 C 40.794,2.684 13.955,4.562 0,0"
             style="fill:#feceac;fill-opacity:1;fill-rule:nonzero;stroke:none"
             id="path1121"
             inkscape:connector-curvature="0" /></g><g
           id="g1123"
           transform="translate(506.9918,101.8317)"><path
             d="m 0,0 -39.117,50.215 c 6.505,18.462 12.634,35.446 15.963,43.607 9.322,22.855 -3.007,36.989 -3.007,36.989 0,0 -22.094,-1.534 -28.23,-0.818 -7.569,0.883 -6.352,-75.564 -6.352,-75.564 l -17.142,-71.87 14.134,-3.609 c 0,0 8.322,24.488 17.661,51.335 9.998,-11.701 36.167,-40.209 36.167,-40.209 z"
             style="fill:#e84855;fill-opacity:1;fill-rule:nonzero;stroke:none"
             id="path1125"
             inkscape:connector-curvature="0" /></g></g></g><g
       id="g1127"><g
         id="g1129"
         clip-path="url(#clipPath1133)"><g
           id="g1135"><g
             id="g1137" /><g
             id="g1149"><g
               clip-path="url(#clipPath1141)"
               id="g1147"
               style="opacity:0.30999804"><g
                 transform="translate(462.8375,120.3766)"
                 id="g1145"><path
                   d="M 0,0 -1.936,11.74 5.037,31.67 15.722,31.784 52.291,-17.089 37.937,-32.127 14.013,-16.405 Z"
                   style="fill:#8d4063;fill-opacity:1;fill-rule:nonzero;stroke:none"
                   id="path1143"
                   inkscape:connector-curvature="0" /></g></g></g></g><g
           id="g1151"><g
             id="g1153" /><g
             id="g1165"><g
               clip-path="url(#clipPath1157)"
               id="g1163"
               style="opacity:0.30999804"><g
                 transform="translate(436.8639,142.5915)"
                 id="g1161"><path
                   d="m 0,0 9.385,13.669 14.881,56.394 c 0,0 -13.329,-25.975 -19.482,-11.279 C -1.367,73.48 0,0 0,0"
                   style="fill:#8d4063;fill-opacity:1;fill-rule:nonzero;stroke:none"
                   id="path1159"
                   inkscape:connector-curvature="0" /></g></g></g></g></g></g><g
       id="g1167"><g
         id="g1169"
         clip-path="url(#clipPath1173)"><g
           id="g1175"
           transform="translate(454.5397,342.6193)"><path
             d="m 0,0 c 4.488,-9.361 3.158,-19.332 -2.969,-22.269 -6.128,-2.938 -14.733,2.27 -19.22,11.632 -4.488,9.362 -3.159,19.331 2.969,22.269 C -13.093,14.569 -4.487,9.361 0,0"
             style="fill:#feceac;fill-opacity:1;fill-rule:nonzero;stroke:none"
             id="path1177"
             inkscape:connector-curvature="0" /></g></g></g><g
       id="g1179"><g
         id="g1181"
         clip-path="url(#clipPath1185)"><g
           id="g1187"
           transform="translate(428.5475,345.488)"><path
             d="m 0,0 c 0.228,0.456 3.075,1.595 7.062,-0.342 3.988,-1.936 4.102,6.38 7.862,5.355 3.759,-1.026 8.43,-4.216 9,-7.747 0.569,-3.532 2.506,-1.253 2.05,2.506 -0.455,3.76 -13.328,13.557 -13.328,13.557 L 2.733,10.937 Z"
             style="fill:#da6354;fill-opacity:1;fill-rule:nonzero;stroke:none"
             id="path1189"
             inkscape:connector-curvature="0" /></g></g></g><g
       id="g1191"><g
         id="g1193"
         clip-path="url(#clipPath1197)"><g
           id="g1199"
           transform="translate(457.028,337.0578)"><path
             d="m 0,0 c 2.553,-7.658 7.868,-24.295 15.038,-25.291 12.304,-1.709 -27.684,-4.101 -27.684,-4.101 0,0 10.595,7.177 3.76,16.746 C -15.722,-3.076 0,0 0,0"
             style="fill:#feceac;fill-opacity:1;fill-rule:nonzero;stroke:none"
             id="path1201"
             inkscape:connector-curvature="0" /></g><g
           id="g1203"
           transform="translate(415.5465,291.5676)"><path
             d="M 0,0 C -0.246,0.021 -0.386,0.035 -0.386,0.035 -0.227,-0.04 -0.103,-0.042 0,0"
             style="fill:#83b3ad;fill-opacity:1;fill-rule:nonzero;stroke:none"
             id="path1205"
             inkscape:connector-curvature="0" /></g><g
           id="g1207"
           transform="translate(459.4205,340.3898)"><path
             d="m 0,0 c 0,-2.595 -1.147,-4.699 -2.563,-4.699 -1.416,0 -2.564,2.104 -2.564,4.699 0,2.596 1.148,4.7 2.564,4.7 C -1.147,4.7 0,2.596 0,0"
             style="fill:#feceac;fill-opacity:1;fill-rule:nonzero;stroke:none"
             id="path1209"
             inkscape:connector-curvature="0" /></g><g
           id="g1211"
           transform="translate(433.7623,333.591)"><path
             d="M 0,0 C -0.066,0.538 0.005,1.09 0.191,1.611 0.375,2.13 0.729,2.635 1.252,2.913 1.778,3.182 2.392,3.186 2.912,3.021 3.174,2.943 3.415,2.813 3.653,2.697 3.876,2.544 4.096,2.393 4.299,2.223 4.038,2.285 3.796,2.366 3.556,2.444 3.308,2.494 3.067,2.561 2.829,2.595 2.351,2.659 1.889,2.619 1.504,2.416 1.114,2.221 0.812,1.85 0.573,1.424 0.339,0.993 0.156,0.51 0,0"
             style="fill:#383838;fill-opacity:1;fill-rule:nonzero;stroke:none"
             id="path1213"
             inkscape:connector-curvature="0" /></g><g
           id="g1215"
           transform="translate(441.7203,337.8757)"><path
             d="M 0,0 C -0.067,0.538 0.004,1.09 0.19,1.612 0.375,2.13 0.728,2.635 1.252,2.913 1.778,3.182 2.392,3.187 2.911,3.021 3.173,2.943 3.414,2.813 3.653,2.698 3.876,2.544 4.095,2.393 4.298,2.223 4.038,2.285 3.795,2.366 3.555,2.445 3.308,2.494 3.066,2.561 2.829,2.596 2.351,2.659 1.889,2.619 1.504,2.416 1.113,2.221 0.812,1.85 0.573,1.424 0.339,0.993 0.155,0.511 0,0"
             style="fill:#383838;fill-opacity:1;fill-rule:nonzero;stroke:none"
             id="path1217"
             inkscape:connector-curvature="0" /></g><g
           id="g1219"
           transform="translate(444.1549,330.5641)"><path
             d="m 0,0 c -0.767,-0.256 -1.591,-0.424 -2.458,-0.232 -0.423,0.089 -0.91,0.364 -1.123,0.862 -0.175,0.455 -0.192,0.861 -0.237,1.276 -0.073,1.64 0.105,3.244 0.514,4.815 C -3.175,5.107 -3.225,3.507 -3.137,1.95 -3.113,1.571 -3.08,1.165 -2.98,0.867 -2.898,0.603 -2.638,0.408 -2.304,0.276 -1.621,0.036 -0.802,-0.001 0,0"
             style="fill:#915036;fill-opacity:1;fill-rule:nonzero;stroke:none"
             id="path1221"
             inkscape:connector-curvature="0" /></g><g
           id="g1223"
           transform="translate(406.6744,265.6281)"><path
             d="M 0,0 C -0.342,0.228 -1.367,3.987 1.822,6.379 5.012,8.772 8.088,3.417 7.062,2.278 6.037,1.139 6.037,-3.304 4.328,-2.506 2.62,-1.709 0,0 0,0"
             style="fill:#feceac;fill-opacity:1;fill-rule:nonzero;stroke:none"
             id="path1225"
             inkscape:connector-curvature="0" /></g><g
           id="g1227"
           transform="translate(510.2604,277.2263)"><path
             d="m 0,0 c 0.324,0.251 4.215,0.029 5.47,-3.756 1.255,-3.785 -4.8,-4.999 -5.555,-3.665 -0.754,1.334 -4.967,2.746 -3.667,4.113 C -2.453,-1.941 0,0 0,0"
             style="fill:#feceac;fill-opacity:1;fill-rule:nonzero;stroke:none"
             id="path1229"
             inkscape:connector-curvature="0" /></g><g
           id="g1231"
           transform="translate(443.4449,311.4186)"><path
             d="m 0,0 c 0,0 15.727,-13.978 26.745,1.305 0,0 15.915,7.325 27.545,6.713 0,0 -0.612,-20.812 3.061,-22.648 0,0 -12.243,-1.837 -14.079,-4.286 -1.836,-2.448 -3.672,-55.702 0.612,-68.557 0,0 -19.588,5.509 -28.157,0 -8.57,-5.509 -19.588,0 -19.588,0 0,0 5.508,18.364 -3.061,37.952 -8.57,19.587 -7.346,29.381 -7.346,29.381 l -14.079,-2.448 c 0,0 -1.836,18.976 -3.673,22.036 C -33.855,2.509 -5.319,3.612 0,0"
             style="fill:#1a73e8;fill-opacity:1;fill-rule:nonzero;stroke:none"
             id="path1233"
             inkscape:connector-curvature="0" /></g><g
           id="g1235"
           transform="translate(454.5397,342.6193)"><path
             d="m 0,0 c 0,0 7.692,-12.165 7.08,-14.001 -0.612,-1.836 -11.63,-15.915 -15.915,-14.691 -4.285,1.225 -8.569,5.509 -9.182,6.734 -0.612,1.224 -2.011,7.574 -2.011,7.574 0,0 9.764,-0.433 12.622,3.648 C -4.55,-6.655 0,0 0,0"
             style="fill:#da6354;fill-opacity:1;fill-rule:nonzero;stroke:none"
             id="path1237"
             inkscape:connector-curvature="0" /></g><g
           id="g1239"
           transform="translate(440.8326,326.0026)"><path
             d="M 0,0 C 0,0 6.628,-1.077 8.645,5.299 8.645,5.299 12.472,-9.439 0,0"
             style="fill:#ffffff;fill-opacity:1;fill-rule:nonzero;stroke:none"
             id="path1241"
             inkscape:connector-curvature="0" /></g><g
           id="g1243"
           transform="translate(223.6788,255.7682)"><path
             d="M 0,0 -1.092,26.757 -0.546,26.78 0.546,0.022 Z"
             style="fill:#38383a;fill-opacity:1;fill-rule:nonzero;stroke:none"
             id="path1245"
             inkscape:connector-curvature="0" /></g><g
           id="g1247"
           transform="translate(220.4479,285.6213)"><path
             d="M 0,0 C -0.5,1.21 -3.504,7.262 -3.504,7.262 L 2.002,0 3.504,9.682 V 0 L 7.008,4.841 5.506,-1.815 15.017,-3.63 H 5.506 l 4.505,-9.077 -7.008,9.077 -0.5,-9.077 -1.002,9.682 -6.507,-9.682 4.506,9.682 -8.51,2.42 z"
             style="fill:#ebc061;fill-opacity:1;fill-rule:nonzero;stroke:none"
             id="path1249"
             inkscape:connector-curvature="0" /></g><g
           id="g1251"
           transform="translate(383.1002,245.4714)"><path
             d="M 0,0 8.369,25.439 8.888,25.269 0.52,-0.17 Z"
             style="fill:#38383a;fill-opacity:1;fill-rule:nonzero;stroke:none"
             id="path1253"
             inkscape:connector-curvature="0" /></g><g
           id="g1255"
           transform="translate(390.5533,274.5598)"><path
             d="M 0,0 C -0.044,1.309 -0.733,8.029 -0.733,8.029 L 1.874,-0.703 6.679,7.836 3.28,-1.229 8.261,2.073 4.519,-3.632 12.787,-8.67 3.881,-5.332 4.914,-15.413 1.537,-4.454 l -3.654,-8.323 2.461,9.417 -9.491,-6.782 7.616,7.485 -7.118,5.253 z"
             style="fill:#ebc061;fill-opacity:1;fill-rule:nonzero;stroke:none"
             id="path1257"
             inkscape:connector-curvature="0" /></g><g
           id="g1259"
           transform="translate(273.0363,319.8249)"><path
             d="m 0,0 c -0.268,-0.448 -5.813,-2.607 -3.474,-8.868 2.34,-6.26 6.459,-7.505 6.459,-7.505 l 2.211,13.877 z"
             style="fill:#38383a;fill-opacity:1;fill-rule:nonzero;stroke:none"
             id="path1261"
             inkscape:connector-curvature="0" /></g><g
           id="g1263"
           transform="translate(281.4469,283.3117)"><path
             d="m 0,0 c 0,0 -1.773,-8.505 -8.991,-8.629 -0.379,-0.007 -0.772,0.01 -1.181,0.051 -8.209,0.844 12.735,-14.912 12.735,-14.912 l 9.424,1.134 8.129,9.837 -6.217,2.274 c 0,0 -7.316,3.264 -2.776,18.393 C 15.664,23.277 0,0 0,0"
             style="fill:#a56f6f;fill-opacity:1;fill-rule:nonzero;stroke:none"
             id="path1265"
             inkscape:connector-curvature="0" /></g><g
           id="g1267"
           transform="translate(280.7081,322.3068)"><path
             d="m 0,0 c 0,0 -10.055,-12.424 -9.82,-27.244 0.102,-6.415 4.667,-11.923 10.981,-13.06 0.081,-0.014 0.162,-0.028 0.243,-0.042 8.176,-1.383 15.743,7.099 17.935,15.792 C 21.531,-15.862 16.265,3.787 0,0"
             style="fill:#a56f6f;fill-opacity:1;fill-rule:nonzero;stroke:none"
             id="path1269"
             inkscape:connector-curvature="0" /></g><g
           id="g1271"
           transform="translate(293.2853,308.945)"><path
             d="m 0,0 c 0,0 -25.957,0.308 -22.501,18.305 3.455,17.997 20.859,-2.734 20.859,-2.734 0,0 0.966,9.758 7.058,6.726 6.092,-3.031 6.035,-19.41 6.035,-19.41 0,0 12.266,-1.856 7.629,-10.637 -4.638,-8.78 -15.478,-16.899 -20.121,-15.947 0,0 0.367,2.215 1.792,5.619 0,0 5.633,3.323 4.463,6.453 -1.17,3.13 -3.043,-0.006 -3.043,-0.006 0,0 -4.393,3.84 -2.171,11.631"
             style="fill:#38383a;fill-opacity:1;fill-rule:nonzero;stroke:none"
             id="path1273"
             inkscape:connector-curvature="0" /></g><g
           id="g1275"
           transform="translate(249.4498,256.9387)"><path
             d="m 0,0 c 0,0 -8.924,-31.681 -8.924,-36.143 0,-4.462 -12.749,22.31 -12.749,29.323 0,0 -0.638,-1.275 0,3.187 0.637,4.462 -4.463,11.474 -6.375,7.65 -1.912,-3.825 2.55,-12.112 2.55,-12.112 0,0 0,-37.61 16.574,-44.621 16.573,-7.012 19.123,45.896 19.123,45.896 z"
             style="fill:#a56f6f;fill-opacity:1;fill-rule:nonzero;stroke:none"
             id="path1277"
             inkscape:connector-curvature="0" /></g><g
           id="g1279"
           transform="translate(304.2701,255.218)"><path
             d="m 0,0 c 1.275,-1.275 32.51,-24.223 73.307,-16.574 0,0 3.825,-1.274 7.011,1.912 3.188,3.188 3.826,12.75 1.913,11.475 -1.913,-1.275 -8.924,-5.737 -8.924,-5.737 0,0 -42.709,-3.825 -60.558,17.211 z"
             style="fill:#a56f6f;fill-opacity:1;fill-rule:nonzero;stroke:none"
             id="path1281"
             inkscape:connector-curvature="0" /></g><g
           id="g1283"
           transform="translate(352.6769,87.3395)"><path
             d="m 0,0 c 0.161,-0.593 11.359,-9.003 11.359,-9.003 0,0 5.763,-1.296 6.679,-2.32 0.915,-1.024 -13.322,-25.901 -14.021,-24.5 -0.699,1.401 2.922,20.844 2.545,21.059 -0.377,0.216 -11.092,6.849 -11.092,6.849 z"
             style="fill:#a56f6f;fill-opacity:1;fill-rule:nonzero;stroke:none"
             id="path1285"
             inkscape:connector-curvature="0" /></g></g></g><g
       id="g1287"><g
         id="g1289"
         clip-path="url(#clipPath1293)"><g
           id="g1295"
           transform="translate(358.4113,83.8073)"><path
             d="m 0,0 c 0,0 -4.691,-7.322 -7.17,-9.906 -2.48,-2.584 -0.663,-25.64 -0.663,-25.64 l 8.992,-6.145 17.042,33.277 -3.227,8.351 z"
             style="fill:#f4eae9;fill-opacity:1;fill-rule:nonzero;stroke:none"
             id="path1297"
             inkscape:connector-curvature="0" /></g><g
           id="g1299"
           transform="translate(363.6881,80.7878)"><path
             d="m 0,0 c 0,0 0.481,-5.279 -7.547,-9.69 -8.029,-4.413 -0.985,-24.455 -0.985,-24.455 l 20.593,27.243 z"
             style="fill:#563219;fill-opacity:1;fill-rule:nonzero;stroke:none"
             id="path1301"
             inkscape:connector-curvature="0" /></g></g></g><g
       id="g1303"><g
         id="g1305"
         clip-path="url(#clipPath1309)"><g
           id="g1311"
           transform="translate(279.193,69.2604)"><path
             d="m 0,0 c -0.045,-0.612 7.707,-12.276 7.707,-12.276 0,0 5,-3.145 5.521,-4.415 0.521,-1.271 -21.198,-19.974 -21.39,-18.42 -0.192,1.554 9.707,18.675 9.424,19.005 -0.283,0.329 -8.172,10.155 -8.172,10.155 z"
             style="fill:#a56f6f;fill-opacity:1;fill-rule:nonzero;stroke:none"
             id="path1313"
             inkscape:connector-curvature="0" /></g></g></g><g
       id="g1315"><g
         id="g1317"
         clip-path="url(#clipPath1321)"><g
           id="g1323"
           transform="translate(283.421,64.0182)"><path
             d="m 0,0 c 0,0 -6.865,-5.339 -10.064,-6.947 -3.2,-1.61 -9.177,-23.95 -9.177,-23.95 l 6.426,-8.793 27.167,25.686 -0.256,8.949 z"
             style="fill:#f4eae9;fill-opacity:1;fill-rule:nonzero;stroke:none"
             id="path1325"
             inkscape:connector-curvature="0" /></g><g
           id="g1327"
           transform="translate(287.3883,59.4108)"><path
             d="m 0,0 c 0,0 -1.307,-5.137 -10.348,-6.618 -9.04,-1.482 -9.085,-22.725 -9.085,-22.725 L 9.068,-10.53 Z"
             style="fill:#563219;fill-opacity:1;fill-rule:nonzero;stroke:none"
             id="path1329"
             inkscape:connector-curvature="0" /></g></g></g><g
       id="g1331"><g
         id="g1333"
         clip-path="url(#clipPath1337)"><g
           id="g1339"
           transform="translate(271.1232,159.6003)"><path
             d="m 0,0 c 0,0 -6.794,-7.395 -10.822,-23.507 -4.028,-16.112 20.14,-57.197 21.751,-65.253 0,0 -8.055,-10.473 -14.5,-8.056 -6.445,2.417 -37.864,53.17 -37.864,69.281 0,16.112 20.745,50.728 27.411,68.332 5.101,13.471 23.212,20.142 43.482,-13.551 4.643,-7.718 5.639,-50.753 5.639,-58.808 0,-8.057 45.114,-30.614 49.947,-41.892 L 78.6,-83.121 c 0,0 -55.587,22.557 -62.837,44.308 C 8.513,-17.062 0.805,-12.889 0,0"
             style="fill:#616163;fill-opacity:1;fill-rule:nonzero;stroke:none"
             id="path1341"
             inkscape:connector-curvature="0" /></g><g
           id="g1343"
           transform="translate(324.5602,241.5612)"><path
             d="M 0,0 C 0.063,-0.029 0.094,-0.03 0,0"
             style="fill:#ebc061;fill-opacity:1;fill-rule:nonzero;stroke:none"
             id="path1345"
             inkscape:connector-curvature="0" /></g><g
           id="g1347"
           transform="translate(325.3063,241.194)"><path
             d="m 0,0 4.462,17.849 c 0,0 -16.599,6.548 -19.821,9.771 -1.382,1.381 -7.947,3.798 -16.012,5.348 -1.737,-3.034 -3.981,-5.174 -10.064,-6.832 -6.522,-1.78 -7.896,6.917 -8.056,8.14 C -54.685,33.877 -62.353,32.714 -65.657,29.96 -77.131,20.398 -78.406,9.562 -78.406,9.562 l 7.461,-7.721 2.738,-42.638 c 0,0 31.466,-13.59 39.521,-9.561 0,0 -1.884,36.256 10.2,58.007 0,0 10.201,-7.033 16.573,-8.287 0.723,-0.141 1.047,-0.23 1.167,-0.269 C -0.921,-0.824 -1.343,-0.513 0,0"
             style="fill:#ffdc5c;fill-opacity:1;fill-rule:nonzero;stroke:none"
             id="path1349"
             inkscape:connector-curvature="0" /></g><g
           id="g1351"
           transform="translate(275.1779,303.1247)"><path
             d="M 0,0 C 0.333,0.456 0.781,0.823 1.295,1.085 1.805,1.348 2.433,1.478 3.029,1.314 3.62,1.143 4.088,0.708 4.364,0.212 4.507,-0.034 4.597,-0.305 4.696,-0.563 4.755,-0.838 4.813,-1.109 4.846,-1.383 4.693,-1.151 4.566,-0.916 4.44,-0.685 4.289,-0.471 4.154,-0.248 3.998,-0.052 3.681,0.337 3.301,0.637 2.865,0.757 2.43,0.888 1.937,0.823 1.451,0.67 0.965,0.511 0.482,0.276 0,0"
             style="fill:#383838;fill-opacity:1;fill-rule:nonzero;stroke:none"
             id="path1353"
             inkscape:connector-curvature="0" /></g><g
           id="g1355"
           transform="translate(284.7399,301.2126)"><path
             d="M 0,0 C 0.333,0.456 0.781,0.823 1.295,1.085 1.805,1.347 2.433,1.478 3.029,1.314 3.62,1.142 4.087,0.708 4.364,0.211 4.507,-0.034 4.597,-0.306 4.695,-0.563 4.754,-0.838 4.813,-1.11 4.845,-1.384 4.692,-1.151 4.566,-0.917 4.44,-0.685 4.288,-0.471 4.153,-0.248 3.998,-0.053 3.68,0.337 3.301,0.637 2.865,0.757 2.43,0.888 1.936,0.823 1.451,0.67 0.965,0.51 0.482,0.276 0,0"
             style="fill:#383838;fill-opacity:1;fill-rule:nonzero;stroke:none"
             id="path1357"
             inkscape:connector-curvature="0" /></g><g
           id="g1359"
           transform="translate(281.9337,293.7682)"><path
             d="m 0,0 c -0.837,0.09 -1.69,0.289 -2.427,0.847 -0.362,0.267 -0.703,0.739 -0.689,1.304 0.031,0.506 0.191,0.897 0.329,1.309 0.318,0.797 0.698,1.548 1.131,2.269 0.426,0.725 0.908,1.415 1.445,2.067 C -0.508,7.006 -0.824,6.233 -1.162,5.476 -1.489,4.714 -1.834,3.963 -2.123,3.207 -2.265,2.838 -2.41,2.439 -2.445,2.113 -2.482,1.829 -2.32,1.531 -2.061,1.261 -1.519,0.737 -0.76,0.347 0,0"
             style="fill:#753838;fill-opacity:1;fill-rule:nonzero;stroke:none"
             id="path1361"
             inkscape:connector-curvature="0" /></g><g
           id="g1363"
           transform="translate(275.5343,292.4099)"><path
             d="M 0,0 C 0,0 4.834,-4.459 9.428,-1.973 9.428,-1.973 5.642,-12.641 0,0"
             style="fill:#ffffff;fill-opacity:1;fill-rule:nonzero;stroke:none"
             id="path1365"
             inkscape:connector-curvature="0" /></g><g
           id="g1367"
           transform="translate(117.0827,160.4284)"><path
             d="m 0,0 c 0,0 -0.032,3.706 -2.41,3.84 -2.377,0.133 -3.783,-0.763 -4.703,-2.454 -0.921,-1.692 0.32,-7.025 -0.718,-9.168 -1.038,-2.144 0.605,-8.841 4.925,-7.065 4.319,1.777 -4.204,5.913 2.515,13.339 z"
             style="fill:#38383a;fill-opacity:1;fill-rule:nonzero;stroke:none"
             id="path1369"
             inkscape:connector-curvature="0" /></g><g
           id="g1371"
           transform="translate(146.1408,73.6794)"><path
             d="m 0,0 c 0,0 -2.889,-9.485 1.136,-15.894 2.068,-3.293 -4.971,-3.318 -7.617,-0.022 -2.646,3.295 -0.311,12.016 -0.311,12.016 0,0 -0.408,4.894 4.112,4.685 z"
             style="fill:#38383a;fill-opacity:1;fill-rule:nonzero;stroke:none"
             id="path1373"
             inkscape:connector-curvature="0" /></g><g
           id="g1375"
           transform="translate(65.4879,255.5246)"><path
             d="m 0,0 -20.833,19.521 0.398,0.425 L 0.398,0.425 Z"
             style="fill:#38383a;fill-opacity:1;fill-rule:nonzero;stroke:none"
             id="path1377"
             inkscape:connector-curvature="0" /></g><g
           id="g1379"
           transform="translate(40.7155,275.7995)"><path
             d="M 0,0 C -1.285,0.546 -8.091,2.9 -8.091,2.9 L 1.522,1.497 -4.574,9.978 2.664,2.62 1.708,8.918 5.542,2.736 14.128,8.466 6.899,1.357 17.108,-2.174 4.997,-0.514 11.401,-7.787 3.403,-1.177 5.695,-13.4 1.881,-2.674 -6.396,-7.195 Z"
             style="fill:#ebc061;fill-opacity:1;fill-rule:nonzero;stroke:none"
             id="path1381"
             inkscape:connector-curvature="0" /></g><g
           id="g1383"
           transform="translate(138.1227,285.4308)"><path
             d="m 0,0 c 0,0 -2.785,3.382 2.651,8.139 5.437,4.757 10.873,13.591 2.039,13.591 -8.835,0 -22.426,10.874 -28.542,5.437 -6.116,-5.437 -18.348,-0.679 -15.629,-7.475 2.718,-6.796 -8.835,-16.31 -2.719,-21.067 6.116,-4.756 9.514,-7.475 9.514,-13.591 0,-6.116 10.193,-12.911 13.591,-2.038 3.398,10.873 10.873,12.232 13.592,12.911 C -2.785,-3.413 0,0 0,0"
             style="fill:#5d344f;fill-opacity:1;fill-rule:nonzero;stroke:none"
             id="path1385"
             inkscape:connector-curvature="0" /></g><g
           id="g1387"
           transform="translate(176.0993,160.944)"><path
             d="m 0,0 c 0.436,-1.327 -1.537,-16.818 -1.537,-16.818 0,0 -18.844,-6.845 -37.641,5.874 -18.797,12.718 -27.586,31.219 -27.586,31.219 0,0 62.41,-7.006 66.764,-20.275"
             style="fill:#c64d43;fill-opacity:1;fill-rule:nonzero;stroke:none"
             id="path1389"
             inkscape:connector-curvature="0" /></g><g
           id="g1391"
           transform="translate(147.7335,177.5856)"><path
             d="m 0,0 c 0.946,-1.745 -4.203,-33.894 -2.709,-38.729 1.493,-4.835 -5.083,-18.112 -3.437,-38.22 1.646,-20.11 -0.751,-28.183 -0.751,-28.183 0,0 2.511,-3.381 4.546,-0.471 2.035,2.911 13.142,48.225 14.591,58.044 1.45,9.82 17.227,21.536 14.673,39.572 C 24.359,10.048 0,0 0,0"
             style="fill:#feceac;fill-opacity:1;fill-rule:nonzero;stroke:none"
             id="path1393"
             inkscape:connector-curvature="0" /></g><g
           id="g1395"
           transform="translate(134.0861,200.6706)"><path
             d="m 0,0 c 0,0 1.547,-41.163 2.569,-50.545 0,0 -9.496,10.433 -21.497,13.408 0,0 -2.654,-3.019 -1.707,-4.764 0.946,-1.745 22.448,-25.99 25.867,-27.297 3.419,-1.308 19.677,-6.719 17.037,40.626 C 19.628,18.773 0,0 0,0"
             style="fill:#feceac;fill-opacity:1;fill-rule:nonzero;stroke:none"
             id="path1397"
             inkscape:connector-curvature="0" /></g><g
           id="g1399"
           transform="translate(144.9845,130.9675)"><path
             d="m 0,0 c 5.863,2.669 9.417,7.395 12.067,13.102 2.668,5.745 4.522,12.014 4.847,18.361 0.012,0.238 -0.358,0.231 -0.371,-0.005 C 16.222,25.184 14.38,18.959 11.742,13.28 9.122,7.637 5.619,2.961 -0.194,0.315 -0.41,0.217 -0.215,-0.098 0,0"
             style="fill:#feceac;fill-opacity:1;fill-rule:nonzero;stroke:none"
             id="path1401"
             inkscape:connector-curvature="0" /></g><g
           id="g1403"
           transform="translate(151.9772,279.6989)"><path
             d="m 0,0 c 0,0 19.359,14.828 21.684,19.701 2.325,4.874 21.138,18.741 22.955,22.888 1.816,4.146 1.145,13.967 0.638,15.276 -0.356,0.921 -2.251,11.851 -1.524,11.342 0.728,-0.509 2.861,-6.591 4.286,-10.273 1.154,-2.986 0.013,-6.816 0.96,-8.561 0.946,-1.746 1.997,6.728 2.724,6.219 0.728,-0.509 2.658,-7.817 1.132,-10 -1.526,-2.182 -5.197,-6.657 -5.197,-6.657 0,0 -11.19,-24.96 -26.458,-39.437 -3.957,-3.752 -6.03,-9.081 -5.733,-14.526 0.259,-4.736 2.592,-12.769 4.295,-15.513 3.566,-5.743 -29.775,-21.956 -29.775,-21.956 0,0 -1.388,15.055 -9.681,18.687 0,0 -27.883,-18.959 -35.738,-17.798 -7.855,1.16 -28.702,21.695 -28.702,21.695 l 2.035,2.911 c 0,0 24.517,-16.062 28.008,-14.169 0,0 25.866,24.299 29.309,25.885 l 3.442,1.585 c 0,0 8.944,3.495 0.832,9.71 l 1.959,10.546 c 0,0 9.753,-15.487 18.549,-7.555"
             style="fill:#feceac;fill-opacity:1;fill-rule:nonzero;stroke:none"
             id="path1405"
             inkscape:connector-curvature="0" /></g><g
           id="g1407"
           transform="translate(152.486,280.4265)"><path
             d="m 0,0 c 0,0 10.409,-19.196 16.738,-22.538 6.329,-3.343 23.952,-52.499 16.621,-83.121 -7.332,-30.622 -11.15,-30.66 -11.15,-30.66 0,0 1.483,16.837 -16.262,16.247 -17.746,-0.59 -55.277,6.156 -55.796,27.101 0,0 66.099,26.359 23.383,76.813 0,0 2.654,3.019 4.617,2.729 1.964,-0.29 8.987,-11.159 14.879,-12.029 5.891,-0.871 14.978,9.025 2.462,22.11 0,0 2.654,3.02 4.508,3.348"
             style="fill:#e84855;fill-opacity:1;fill-rule:nonzero;stroke:none"
             id="path1409"
             inkscape:connector-curvature="0" /></g><g
           id="g1411"
           transform="translate(130.1837,299.2746)"><path
             d="m 0,0 c 7.421,-5.557 10.124,-14.485 6.038,-19.942 -4.086,-5.456 -13.415,-5.375 -20.836,0.182 -7.421,5.557 -10.124,14.486 -6.037,19.943 C -16.75,5.639 -7.421,5.558 0,0"
             style="fill:#feceac;fill-opacity:1;fill-rule:nonzero;stroke:none"
             id="path1413"
             inkscape:connector-curvature="0" /></g><g
           id="g1415"
           transform="translate(70.4176,252.3727)"><path
             d="m 0,0 c 0,0 0.732,6.063 -3.595,7.188 -4.327,1.126 -8.789,-0.868 -8.464,-4.164 0.327,-3.296 5.955,0.367 7.949,-4.096 l 3.229,-1.234 z"
             style="fill:#feceac;fill-opacity:1;fill-rule:nonzero;stroke:none"
             id="path1417"
             inkscape:connector-curvature="0" /></g><g
           id="g1419"
           transform="translate(118.3483,301.7248)"><path
             d="m 0,0 c 0,0 0,-12.912 -7.475,-14.271 0,0 11.414,-9.713 6.387,-10.293 -5.028,-0.58 -13.183,8.254 -13.183,8.254 L -15.63,-2.718 -7.475,5.437 2.718,4.078 c 0,0 9.514,-4.757 10.194,-6.117 C 13.591,-3.397 0,0 0,0"
             style="fill:#5d344f;fill-opacity:1;fill-rule:nonzero;stroke:none"
             id="path1421"
             inkscape:connector-curvature="0" /></g><g
           id="g1423"
           transform="translate(135.1364,299.55)"><path
             d="m 0,0 c 0.731,-1.522 0.502,-3.151 -0.513,-3.639 -1.015,-0.488 -2.43,0.35 -3.162,1.873 -0.732,1.522 -0.502,3.151 0.513,3.639 C -2.147,2.361 -0.731,1.522 0,0"
             style="fill:#feceac;fill-opacity:1;fill-rule:nonzero;stroke:none"
             id="path1425"
             inkscape:connector-curvature="0" /></g><g
           id="g1427"
           transform="translate(117.3434,280.2878)"><path
             d="m 0,0 c 1.663,-0.293 2.853,-1.43 2.658,-2.539 -0.196,-1.108 -1.703,-1.77 -3.366,-1.477 -1.664,0.294 -2.853,1.43 -2.658,2.539 C -3.17,-0.368 -1.664,0.293 0,0"
             style="fill:#feceac;fill-opacity:1;fill-rule:nonzero;stroke:none"
             id="path1429"
             inkscape:connector-curvature="0" /></g><g
           id="g1431"
           transform="translate(127.8869,296.8283)"><path
             d="m 0,0 c -0.556,0.111 -1.137,0.079 -1.696,-0.076 -0.556,-0.152 -1.109,-0.482 -1.44,-1.007 -0.321,-0.529 -0.372,-1.168 -0.24,-1.724 0.061,-0.279 0.179,-0.541 0.281,-0.799 0.143,-0.244 0.284,-0.485 0.446,-0.709 -0.045,0.275 -0.111,0.535 -0.174,0.792 -0.033,0.262 -0.085,0.519 -0.102,0.769 -0.03,0.504 0.048,0.984 0.289,1.369 0.234,0.393 0.643,0.679 1.106,0.896 C -1.062,-0.277 -0.544,-0.123 0,0"
             style="fill:#383838;fill-opacity:1;fill-rule:nonzero;stroke:none"
             id="path1433"
             inkscape:connector-curvature="0" /></g><g
           id="g1435"
           transform="translate(122.1037,287.5593)"><path
             d="m 0,0 c -0.556,0.111 -1.137,0.079 -1.696,-0.076 -0.556,-0.152 -1.109,-0.482 -1.44,-1.007 -0.321,-0.529 -0.373,-1.168 -0.24,-1.724 0.061,-0.279 0.179,-0.541 0.281,-0.799 0.143,-0.244 0.284,-0.485 0.446,-0.709 -0.045,0.275 -0.111,0.535 -0.175,0.792 -0.032,0.262 -0.084,0.519 -0.101,0.769 -0.03,0.504 0.048,0.983 0.289,1.369 0.233,0.393 0.643,0.679 1.106,0.896 C -1.062,-0.277 -0.544,-0.123 0,0"
             style="fill:#383838;fill-opacity:1;fill-rule:nonzero;stroke:none"
             id="path1437"
             inkscape:connector-curvature="0" /></g><g
           id="g1439"
           transform="translate(128.0402,285.3205)"><path
             d="M 0,0 C 0.365,0.415 0.689,0.889 0.798,1.486 0.854,1.775 0.81,2.155 0.553,2.422 0.313,2.653 0.062,2.771 -0.187,2.91 -0.694,3.154 -1.211,3.349 -1.74,3.505 -2.267,3.667 -2.807,3.787 -3.355,3.864 -2.861,3.613 -2.366,3.38 -1.867,3.164 -1.371,2.94 -0.871,2.73 -0.396,2.492 -0.164,2.377 0.083,2.249 0.245,2.106 0.389,1.985 0.443,1.769 0.437,1.524 0.408,1.03 0.213,0.504 0,0"
             style="fill:#e2a77f;fill-opacity:1;fill-rule:nonzero;stroke:none"
             id="path1441"
             inkscape:connector-curvature="0" /></g><g
           id="g1443"
           transform="translate(133.5412,288.6501)"><path
             d="m 0,0 c 0,0 -0.553,-6.585 -5.644,-7.863 0,0 10.05,-5.332 5.644,7.863"
             style="fill:#ffffff;fill-opacity:1;fill-rule:nonzero;stroke:none"
             id="path1445"
             inkscape:connector-curvature="0" /></g><g
           id="g1447"
           transform="translate(623.8287,304.7966)"><path
             d="m 0,0 c 0,0 -2.354,3.923 0,7.061 0,0 -2.354,3.139 2.354,6.277 0,0 3.922,7.846 10.984,3.138 0,0 4.707,6.277 7.846,0 0,0 10.199,0 7.06,-4.707 0,0 7.847,-3.139 4.708,-7.061 0,0 6.277,-3.923 1.569,-7.846 0,0 2.354,-9.415 -3.922,-10.2 0,0 1.569,-6.277 -3.923,-4.707 0,0 -7.062,-7.061 -8.631,-3.139 0,0 -4.707,-3.922 -5.492,0.785 0,0 -7.832,-6.016 -7.054,0.13 C 6.276,-14.123 -3.924,-4.708 0,0"
             style="fill:#38383a;fill-opacity:1;fill-rule:nonzero;stroke:none"
             id="path1449"
             inkscape:connector-curvature="0" /></g><g
           id="g1451"
           transform="translate(615.2994,216.8483)"><path
             d="m 0,0 c 0,0 26.513,-17.249 15.014,-40.568 -11.5,-23.319 -29.707,-44.72 -29.707,-44.72 0,0 16.61,-5.431 19.166,-59.095 0,0 2.714,-3.674 1.916,-5.43 -0.799,-1.757 -4.626,-1.382 -5.111,-5.749 -0.479,-4.313 -7.986,-3.674 -7.028,-2.556 0.959,1.118 7.348,6.389 7.826,13.256 l -27.79,59.574 c 0,0 3.514,39.29 12.458,56.059 C -4.312,-12.458 0,0 0,0"
             style="fill:#a56f6f;fill-opacity:1;fill-rule:nonzero;stroke:none"
             id="path1453"
             inkscape:connector-curvature="0" /></g></g></g><g
       id="g1455"><g
         id="g1457"
         clip-path="url(#clipPath1461)"><g
           id="g1463"
           transform="translate(601.3209,87.569)"><path
             d="m 0,0 c 1.275,0.638 24.224,-0.638 21.036,19.761 -3.187,20.398 0,36.335 0,36.335 l 26.136,33.784 -1.276,26.773 -46.339,3.192 -19.318,-19.128 -8.924,-40.159 4.462,-36.335 12.749,-19.761 z"
             style="fill:#f9dc5c;fill-opacity:1;fill-rule:nonzero;stroke:none"
             id="path1465"
             inkscape:connector-curvature="0" /></g></g></g><g
       id="g1467"><g
         id="g1469"
         clip-path="url(#clipPath1473)"><g
           id="g1475"
           transform="translate(608.0211,217.7927)"><path
             d="m 0,0 c 0,0 7.392,-30.755 -16.992,-39.78 -24.383,-9.026 -52.319,-12.047 -52.319,-12.047 0,0 8.328,-15.363 -26.714,-56.087 0,0 -0.555,-4.534 -2.342,-5.261 -1.788,-0.726 -4.31,2.177 -7.665,-0.661 -3.313,-2.802 -8.324,2.823 -6.86,2.977 1.464,0.152 9.727,-0.413 14.797,4.244 l 20.782,62.366 c 0,0 29.566,26.113 47.59,32.141 C -11.697,-6.081 0,0 0,0"
             style="fill:#a56f6f;fill-opacity:1;fill-rule:nonzero;stroke:none"
             id="path1477"
             inkscape:connector-curvature="0" /></g></g></g><g
       id="g1479"><g
         id="g1481"
         clip-path="url(#clipPath1485)"><g
           id="g1487"
           transform="translate(513.3531,137.2897)"><path
             d="M 0,0 C 0,0 0.251,-0.435 0.718,-1.14 3.497,-5.338 13.945,-19.11 24.86,-7.649 37.609,5.737 56.733,26.136 56.733,26.136 L 118.565,45.896 101.992,87.968 52.271,89.243 5.1,58.646"
             style="fill:#f9dc5c;fill-opacity:1;fill-rule:nonzero;stroke:none"
             id="path1489"
             inkscape:connector-curvature="0" /></g></g></g><g
       id="g1491"><g
         id="g1493"
         clip-path="url(#clipPath1497)"><g
           id="g1499"
           transform="translate(640.8483,260.7668)"><path
             d="m 0,0 c 0,0 22.973,0.873 34.957,9.595 0,0 10.297,17.366 10.297,40.314 h -1.912 c 0,0 -12.749,-19.761 -12.776,-32.227 0,0 -29.285,1.131 -38.496,-4.94 C -17.141,6.671 0,0 0,0"
             style="fill:#a56f6f;fill-opacity:1;fill-rule:nonzero;stroke:none"
             id="path1501"
             inkscape:connector-curvature="0" /></g><g
           id="g1503"
           transform="translate(604.6041,270.3498)"><path
             d="m 0,0 c 0,0 -22.972,0.873 -34.957,9.595 0,0 -34.188,13.257 -38.701,20.754 l -0.449,2.703 c 0,0 34.129,-7.287 43.541,-15.37 0,0 29.286,1.131 38.496,-4.94 C 17.141,6.671 0,0 0,0"
             style="fill:#a56f6f;fill-opacity:1;fill-rule:nonzero;stroke:none"
             id="path1505"
             inkscape:connector-curvature="0" /></g><g
           id="g1507"
           transform="translate(530.4967,303.402)"><path
             d="m 0,0 -17.111,-14.735 c 0,0 9.282,0.987 11.798,6.317 0,0 1.726,-7.715 2.43,-4.597 0.705,3.118 0.042,4.964 0.042,4.964 0,0 2.077,0.745 3.29,5.347"
             style="fill:#a56f6f;fill-opacity:1;fill-rule:nonzero;stroke:none"
             id="path1509"
             inkscape:connector-curvature="0" /></g><g
           id="g1511"
           transform="translate(623.9244,219.7233)"><path
             d="m 0,0 c 0,0 -2.556,19.964 19.645,42.644 l -0.24,10.541 -35.217,11.26 c 0,0 -5.173,-15.018 -9.104,-19.166 -4.313,-4.552 -3.114,-16.051 5.27,-13.416 l 7.188,-28.509 z"
             style="fill:#995042;fill-opacity:1;fill-rule:nonzero;stroke:none"
             id="path1513"
             inkscape:connector-curvature="0" /></g></g></g><g
       id="g1515"><g
         id="g1517"
         clip-path="url(#clipPath1521)"><g
           id="g1523"
           transform="translate(623.6315,236.1911)"><path
             d="m 0,0 c 0,-1.037 0.912,-1.877 2.036,-1.877 1.125,0 2.037,0.84 2.037,1.877 0,1.036 -0.912,1.876 -2.037,1.876 C 0.912,1.876 0,1.036 0,0"
             style="fill:#995042;fill-opacity:1;fill-rule:nonzero;stroke:none"
             id="path1525"
             inkscape:connector-curvature="0" /></g><g
           id="g1527"
           transform="translate(620.9967,238.4665)"><path
             d="m 0,0 c 0,-1.036 0.911,-1.876 2.036,-1.876 1.124,0 2.036,0.84 2.036,1.876 0,1.037 -0.912,1.877 -2.036,1.877 C 0.911,1.877 0,1.037 0,0"
             style="fill:#995042;fill-opacity:1;fill-rule:nonzero;stroke:none"
             id="path1529"
             inkscape:connector-curvature="0" /></g><g
           id="g1531"
           transform="translate(617.6422,239.6647)"><path
             d="m 0,0 c 0,-1.036 0.912,-1.877 2.036,-1.877 1.125,0 2.037,0.841 2.037,1.877 0,1.036 -0.912,1.877 -2.037,1.877 C 0.912,1.877 0,1.036 0,0"
             style="fill:#995042;fill-opacity:1;fill-rule:nonzero;stroke:none"
             id="path1533"
             inkscape:connector-curvature="0" /></g><g
           id="g1535"
           transform="translate(614.2819,240.7458)"><path
             d="m 0,0 c 0,-1.037 0.911,-1.877 2.036,-1.877 1.124,0 2.036,0.84 2.036,1.877 0,1.036 -0.912,1.876 -2.036,1.876 C 0.911,1.876 0,1.036 0,0"
             style="fill:#995042;fill-opacity:1;fill-rule:nonzero;stroke:none"
             id="path1537"
             inkscape:connector-curvature="0" /></g><g
           id="g1539"
           transform="translate(610.6881,241.3444)"><path
             d="m 0,0 c 0,-1.036 0.911,-1.877 2.036,-1.877 1.125,0 2.036,0.841 2.036,1.877 0,1.036 -0.911,1.877 -2.036,1.877 C 0.911,1.877 0,1.036 0,0"
             style="fill:#995042;fill-opacity:1;fill-rule:nonzero;stroke:none"
             id="path1541"
             inkscape:connector-curvature="0" /></g><g
           id="g1543"
           transform="translate(606.7946,240.8649)"><path
             d="m 0,0 c 0,-1.036 0.912,-1.876 2.037,-1.876 1.124,0 2.036,0.84 2.036,1.876 0,1.037 -0.912,1.877 -2.036,1.877 C 0.912,1.877 0,1.037 0,0"
             style="fill:#995042;fill-opacity:1;fill-rule:nonzero;stroke:none"
             id="path1545"
             inkscape:connector-curvature="0" /></g></g></g><g
       id="g1547"><g
         id="g1549"
         clip-path="url(#clipPath1553)"><g
           id="g1555"
           transform="translate(633.6666,271.4709)"><path
             d="m 0,0 c 0,0 2.875,4.152 2.396,3.993 -0.479,-0.16 -8.305,7.826 -4.952,17.249 l -6.708,1.917 c 0,0 -4.631,-17.09 -16.29,-10.462 l 9.742,-15.572 z"
             style="fill:#a56f6f;fill-opacity:1;fill-rule:nonzero;stroke:none"
             id="path1557"
             inkscape:connector-curvature="0" /></g><g
           id="g1559"
           transform="translate(619.9625,290.8361)"><path
             d="M 0,0 C 2.757,-4.774 11.091,-5.123 18.615,-0.779 26.14,3.565 30.005,10.958 27.249,15.732 24.492,20.506 16.158,20.855 8.634,16.511 1.109,12.167 -2.756,4.774 0,0"
             style="fill:#a56f6f;fill-opacity:1;fill-rule:nonzero;stroke:none"
             id="path1561"
             inkscape:connector-curvature="0" /></g><g
           id="g1563"
           transform="translate(629.9938,293.5114)"><path
             d="M 0,0 C 0,0 -5.91,2.076 -5.431,7.986 -5.431,7.986 -14.534,-3.833 0,0"
             style="fill:#ffffff;fill-opacity:1;fill-rule:nonzero;stroke:none"
             id="path1565"
             inkscape:connector-curvature="0" /></g><g
           id="g1567"
           transform="translate(630.0172,293.5104)"><path
             d="m 0,0 c -0.314,-0.085 -0.639,-0.208 -0.996,-0.323 -0.365,-0.126 -0.689,-0.181 -1.033,-0.27 -0.679,-0.166 -1.371,-0.29 -2.075,-0.347 -0.701,-0.068 -1.421,-0.079 -2.138,0.07 -0.705,0.13 -1.46,0.482 -1.89,1.157 -0.423,0.678 -0.408,1.484 -0.293,2.184 0.126,0.713 0.386,1.379 0.687,2.014 0.627,1.262 1.406,2.418 2.221,3.55 L -5.368,8.241 -5.375,7.98 C -5.397,7.125 -5.353,6.259 -5.068,5.457 -4.815,4.653 -4.443,3.889 -3.937,3.217 -3.455,2.526 -2.846,1.929 -2.186,1.394 -1.512,0.855 -0.808,0.424 0,0 M -0.048,0.002 C -0.853,0.206 -1.659,0.649 -2.377,1.136 -3.104,1.632 -3.741,2.262 -4.279,2.967 -4.814,3.676 -5.195,4.508 -5.378,5.374 -5.604,6.235 -5.566,7.125 -5.533,7.993 L -5.392,7.938 C -6.225,6.839 -6.92,5.622 -7.426,4.347 -7.681,3.712 -7.892,3.059 -7.987,2.4 -8.078,1.75 -8.051,1.062 -7.707,0.557 c 0.335,-0.51 0.934,-0.799 1.572,-0.94 0.641,-0.142 1.324,-0.173 2.005,-0.142 0.341,0.014 0.684,0.03 1.025,0.078 0.341,0.033 0.685,0.065 1.025,0.125 0.709,0.116 1.293,0.183 2.032,0.324"
             style="fill:#a01313;fill-opacity:1;fill-rule:nonzero;stroke:none"
             id="path1569"
             inkscape:connector-curvature="0" /></g><g
           id="g1571"
           transform="translate(636.0514,297.6213)"><path
             d="m 0,0 c -0.272,0.785 -0.488,1.465 -0.855,2.018 -0.175,0.28 -0.399,0.508 -0.667,0.723 -0.266,0.225 -0.6,0.375 -0.967,0.595 0.398,0.11 0.848,0.123 1.26,-0.047 0.418,-0.147 0.8,-0.452 1.039,-0.833 C 0.055,2.079 0.188,1.649 0.215,1.226 0.244,0.805 0.191,0.38 0,0"
             style="fill:#38383a;fill-opacity:1;fill-rule:nonzero;stroke:none"
             id="path1573"
             inkscape:connector-curvature="0" /></g><g
           id="g1575"
           transform="translate(631.8551,302.8854)"><path
             d="m 0,0 c -0.003,0.831 0.016,1.545 -0.151,2.187 -0.075,0.322 -0.212,0.61 -0.396,0.9 -0.178,0.3 -0.444,0.551 -0.72,0.879 C -0.854,3.94 -0.424,3.806 -0.09,3.509 0.257,3.234 0.52,2.822 0.62,2.384 0.729,1.948 0.715,1.498 0.603,1.089 0.492,0.682 0.305,0.297 0,0"
             style="fill:#38383a;fill-opacity:1;fill-rule:nonzero;stroke:none"
             id="path1577"
             inkscape:connector-curvature="0" /></g><g
           id="g1579"
           transform="translate(627.8737,296.819)"><path
             d="M 0,0 C -0.471,0.54 -0.87,1.166 -1.003,1.937 -1.07,2.313 -1.006,2.804 -0.668,3.144 -0.354,3.438 -0.027,3.586 0.299,3.76 0.959,4.066 1.632,4.308 2.319,4.5 3.006,4.694 3.702,4.852 4.416,4.933 3.774,4.61 3.125,4.33 2.477,4.056 1.831,3.776 1.18,3.514 0.561,3.216 0.258,3.072 -0.064,2.91 -0.275,2.729 -0.465,2.575 -0.538,2.297 -0.535,1.98 -0.511,1.338 -0.259,0.661 0,0"
             style="fill:#894e4e;fill-opacity:1;fill-rule:nonzero;stroke:none"
             id="path1581"
             inkscape:connector-curvature="0" /></g><g
           id="g1583"
           transform="translate(683.9166,311.864)"><path
             d="M 0,0 -1.092,26.757 -0.546,26.78 0.546,0.022 Z"
             style="fill:#38383a;fill-opacity:1;fill-rule:nonzero;stroke:none"
             id="path1585"
             inkscape:connector-curvature="0" /></g><g
           id="g1587"
           transform="translate(680.6862,341.717)"><path
             d="M 0,0 C -0.501,1.21 -3.504,7.261 -3.504,7.261 L 2.002,0 3.504,9.682 V 0 L 7.008,4.841 5.506,-1.815 15.017,-3.63 H 5.506 l 4.505,-9.077 -7.008,9.077 -0.501,-9.077 -1.001,9.682 -6.507,-9.682 4.505,9.682 -8.51,2.42 z"
             style="fill:#ebc061;fill-opacity:1;fill-rule:nonzero;stroke:none"
             id="path1589"
             inkscape:connector-curvature="0" /></g><g
           id="g1591"
           transform="translate(683.6891,307.7868)"><path
             d="M 0,0 C 0,0 -5.874,13.088 -0.774,12.451 4.325,11.813 7.513,13.088 6.875,9.901 6.237,6.714 2.05,-0.326 2.05,-0.326 Z"
             style="fill:#a56f6f;fill-opacity:1;fill-rule:nonzero;stroke:none"
             id="path1593"
             inkscape:connector-curvature="0" /></g><g
           id="g1595"
           transform="translate(567.0729,292.1979)"><path
             d="m 0,0 c 0,0 0.464,2.542 8.113,-0.008 7.65,-2.55 27.41,0.637 31.872,-3.825 4.462,-4.462 8.196,-5.454 8.196,-5.454 0,0 1.366,-12.394 20.49,-6.02 0,0 22.948,5.1 29.322,4.462 6.375,-0.637 7.775,5.523 7.775,5.523 0,0 5.78,-4.993 8.883,-2.708 0,0 5.016,-16.838 -11.558,-23.213 -16.573,-6.374 -30.598,-2.549 -29.96,-12.111 0.638,-9.562 -5.1,-27.411 -9.562,-31.873 -4.462,-4.462 -0.942,-15.784 -0.942,-15.784 0,0 -4.795,-12.263 -15.632,-4.614 -10.836,7.649 -15.322,16.638 -25.51,12.78 -10.186,-3.856 3.837,17.818 5.113,22.917 1.274,5.1 -8.925,14.661 -5.738,24.223 3.188,9.562 -21.326,18.995 -20.862,24.477 0,0 4.635,3.587 0,11.228"
             style="fill:#e84855;fill-opacity:1;fill-rule:nonzero;stroke:none"
             id="path1597"
             inkscape:connector-curvature="0" /></g><g
           id="g1599"
           transform="translate(635.7438,311.9509)"><path
             d="m 0,0 c 0,0 -1.275,-4.462 3.824,-4.462 0,0 0.638,-5.737 4.463,-5.737 0,0 -1.913,-1.275 0,-3.825 1.912,-2.55 -8.287,-7.012 -3.187,-8.924 5.099,-1.912 9.561,1.912 9.561,1.912 l 5.737,12.112 -5.099,7.012 -7.65,3.825 H 1.912 Z"
             style="fill:#38383a;fill-opacity:1;fill-rule:nonzero;stroke:none"
             id="path1601"
             inkscape:connector-curvature="0" /></g><g
           id="g1603"
           transform="translate(639.3424,292.6384)"><path
             d="M 0,0 C 0,0 2.575,-0.359 1.797,-2.156 1.019,-3.953 -3.114,-2.456 -2.156,-1.317 -1.198,-0.18 0,0 0,0"
             style="fill:#a56f6f;fill-opacity:1;fill-rule:nonzero;stroke:none"
             id="path1605"
             inkscape:connector-curvature="0" /></g></g></g></g></svg>